<svg xmlns="http://www.w3.org/2000/svg" width="246.306" height="54" viewBox="0 0 246.306 54">
  <g id="Grupo_1" data-name="Grupo 1" transform="translate(-168 -63)">
    <g id="shoes" transform="translate(353.559 52)">
      <path id="Caminho_1" data-name="Caminho 1" d="M57.992,48.814H56.241L54.6,45.085h.408a.746.746,0,0,0,0-1.492H53.944L53.288,42.1h.229a.746.746,0,0,0,0-1.492h-.886l-.656-1.492h.05a.746.746,0,1,0,0-1.492h-.707l-.661-1.5a.746.746,0,0,0-.124-1.48h-.528L48.3,30.759V27.932a2.239,2.239,0,0,0-.037-.4L58.519,17.273A.746.746,0,0,0,57.992,16H37.11a.746.746,0,0,0-.527.218l-1.715,1.715a2.238,2.238,0,0,0-3.069.086L21.667,28.151l-.982.982a6.712,6.712,0,0,0,0,9.492L27.962,45.9a2.223,2.223,0,0,0,1.582.655H31.89a.747.747,0,0,1,.746.746v2.385a2.223,2.223,0,0,0,.655,1.582l6.2,6.2a11.113,11.113,0,0,0,7.91,3.276H59.483a3.733,3.733,0,0,0,3.729-3.729V54.034A5.226,5.226,0,0,0,57.992,48.814Zm0,1.492a3.733,3.733,0,0,1,3.729,3.729v.746H52.749a8.15,8.15,0,0,1-5.8-2.4l-19.51-19.51a6.712,6.712,0,0,0,0-8.379l2.214-2.214v.459a9.632,9.632,0,0,0,2.84,6.855L36.2,33.3a9.632,9.632,0,0,0,6.855,2.84H45.3l.656,1.492H43.822a.746.746,0,1,0,0,1.492h2.795l.656,1.492h-1.96a.746.746,0,1,0,0,1.492h2.616l.656,1.492H46.805a.746.746,0,0,0,0,1.492h2.437l1.317,2.993a3.73,3.73,0,0,0,3.413,2.227Zm-3.38-1.492h-.639a2.238,2.238,0,0,1-2.048-1.336l-1.053-2.393h2.1Zm-2.3-5.22h-2.1L49.559,42.1h2.1ZM51,40.61H48.9l-.656-1.492h2.1ZM47.59,37.627l-.656-1.492h2.1l.656,1.492Zm-1.313-2.983-1.313-2.983h2.1l1.313,2.983Zm.528-4.475H43.31c-.078,0-.156,0-.234-.006V27.932a.747.747,0,0,1,.746-.746h2.237a.747.747,0,0,1,.746.746ZM37.419,17.492H56.191L47.479,26.2a2.227,2.227,0,0,0-1.419-.509H43.822a2.24,2.24,0,0,0-2.237,2.237v1.946a5.2,5.2,0,0,1-1.966-1.237L37.148,26.17a5.186,5.186,0,0,1-1.529-3.692V19.6a2.262,2.262,0,0,0-.019-.29Zm-4.565,1.582a.746.746,0,0,1,1.273.527v2.877a6.668,6.668,0,0,0,1.966,4.746L38.564,29.7a6.668,6.668,0,0,0,4.746,1.966h.025l1.313,2.983H43.054a8.149,8.149,0,0,1-5.8-2.4l-3.707-3.707a8.149,8.149,0,0,1-2.4-5.8V20.783Zm-6.478,6.478a5.225,5.225,0,0,1,0,6.254l-3.127-3.127Zm33.107,33.7H57.246v-.746a.746.746,0,0,0-1.492,0v.746H51.28v-.746a.746.746,0,0,0-1.492,0v.746H47.4a9.621,9.621,0,0,1-6.226-2.264l1.684-1.683A.746.746,0,0,0,41.8,54.253l-1.71,1.71-3.42-3.42,1.71-1.71a.746.746,0,0,0-1.055-1.055l-1.71,1.71-1.273-1.273a.741.741,0,0,1-.218-.527V47.3a2.24,2.24,0,0,0-2.237-2.237H29.544a.741.741,0,0,1-.527-.218l-2.764-2.764,1.69-1.69a.746.746,0,1,0-1.055-1.055l-1.69,1.69-3.419-3.419,1.69-1.69a.746.746,0,1,0-1.055-1.055l-1.548,1.548a5.224,5.224,0,0,1,.875-6.223l.455-.455,23.7,23.7a9.631,9.631,0,0,0,6.855,2.84h8.971v.746a2.24,2.24,0,0,1-2.237,2.237Z" transform="translate(-2.466)" fill="#fff"/>
      <path id="Caminho_2" data-name="Caminho 2" d="M16.746,337.492h6.712a.746.746,0,1,0,0-1.492H16.746a.746.746,0,0,0,0,1.492Z" transform="translate(0 -290.169)" fill="#fff"/>
      <path id="Caminho_3" data-name="Caminho 3" d="M32.407,432H16.746a.746.746,0,1,0,0,1.492H32.407a.746.746,0,1,0,0-1.492Z" transform="translate(0 -377.22)" fill="#fff"/>
      <path id="Caminho_4" data-name="Caminho 4" d="M16.746,385.492H27.932a.746.746,0,0,0,0-1.492H16.746a.746.746,0,0,0,0,1.492Z" transform="translate(0 -333.694)" fill="#fff"/>
    </g>
    <text id="YourShoes" transform="translate(168 103)" fill="#fff" font-size="40" font-family="Nunito-Bold, Nunito" font-weight="700"><tspan x="0" y="0">YourShoes</tspan></text>
  </g>
</svg>
